<?xml version="1.0" encoding="utf-8"?>
<!-- Generator: Adobe Illustrator 26.5.0, SVG Export Plug-In . SVG Version: 6.00 Build 0)  -->
<svg version="1.1" id="Layer_1" xmlns="http://www.w3.org/2000/svg" xmlns:xlink="http://www.w3.org/1999/xlink" x="0px" y="0px"
	 viewBox="0 0 1080 1080" style="enable-background:new 0 0 1080 1080;" xml:space="preserve">
<style type="text/css">
	.st0{fill:#FFFFFF;}
</style>
<g>
	<path class="st0" d="M1012.08,681.25c0,0,0.25,46.57-0.07,68.89c-0.28,19.41,0.87,39.15-2.25,58.14
		c-6.77,41.17-47.53,74.05-89.34,74.3c-30.16,0.18-60.31,0.09-90.47,0.01c-12.62-0.03-14.59-2.46-13.36-15.14
		c2.73-28.33,5.27-56.68,8.14-84.99c0.99-9.72-2.5-13.24-12.51-12.82c-40.13,1.69-80.29,2.57-120.41,4.33
		c-4.66,0.2-9.76,3.24-13.66,6.25c-41.17,31.88-88.01,48.18-139.72,49.3c-53.39,1.16-101.69-15.25-143.86-47.94
		c-52.89-40.99-83.6-95.42-90.46-161.79c-7.07-68.29,11.65-129.77,56.18-182.59c39.36-46.68,89.8-74.24,150.17-81.54
		c72.07-8.72,135.87,11.17,190.11,60.24c27.95,25.29,48.19,55.64,61.96,90.62c3.4,8.64,3.54,15.73-2.56,23.36
		c-10.23,12.82-19.66,26.27-30.93,41.49c-3.12-13.52-5.13-24.5-8.21-35.17c-20.78-71.95-81.67-122.48-156-132.43
		c-100.68-13.48-203.22,57.38-213.63,170.5c-6.68,72.58,21.72,130.97,80.35,174.25c3.83,2.83,10.39,4.12,15.13,3.22
		c78.58-14.98,152.04-42.31,218.01-88.77c66.63-46.93,118.95-105.53,153.52-179.67c5.85-12.55,6.76-25.43,6.57-38.84
		c-0.26-19.1,4.4-23.57,23.3-23.62c27.24-0.07,26.93,1.97,32.37,29.31c3.77,18.94,12.01,37.89,22.12,54.48
		c17.32,28.42,37.65,55,56.77,82.31c0.85,1.21,2.32,2,5.02,4.26c0.26-4.95,0.59-8.31,0.59-11.67c0.04-55.77,0.09-111.55,0.03-167.32
		c-0.04-33.48-19.63-52.91-53.37-52.96c-47.34-0.07-94.69-0.09-142.03,0.01c-24.11,0.05-42.55-9.76-54.66-30.78
		c-12.29-21.35-24.81-42.58-36.53-64.23c-7.49-13.83-17.08-20.68-33.93-20.48c-70.03,0.84-140.08,0.55-210.12,0.18
		c-13.83-0.07-23.24,4.43-29.87,17c-12.24,23.22-25.22,46.06-38.43,68.74c-11.55,19.83-29.24,29.57-52.29,29.55
		c-48.32-0.05-96.63-0.05-144.95,0.01c-34.61,0.04-53.73,19.06-53.74,53.54c-0.02,122.9,0.31,245.8-0.15,368.69
		c-0.11,30.72,19.69,54.7,54.39,54.37c103.11-0.98,206.23-0.39,309.35-0.25c9.03,0.01,18.16,0.69,27.08,2.09
		c13.97,2.19,24.7,9.72,30.98,22.56c6.81,13.92,1.7,22.27-13.59,22.33c-38.59,0.14-77.18,0.05-115.76,0.05
		c-80.74,0-161.49,0.03-242.23-0.01c-53.71-0.03-96.91-42.07-97.07-95.86c-0.38-125.82-0.28-251.63,0.02-377.45
		c0.11-44.31,29-81.39,71.73-93.16c7.17-1.97,10.01-5.15,10.19-12.68c0.43-17.86,7.52-24.33,25.4-24.37
		c27.24-0.05,54.48-0.04,81.72,0.01c23.23,0.04,29.58,5.56,33.3,28.14c0.36,2.18,1.97,5.1,3.8,5.94
		c10.11,4.63,26.73-0.21,32.56-10.01c11.92-20.05,24.6-39.82,34.48-60.88c14.99-31.93,39.71-45.14,73.79-45.01
		c70.69,0.27,141.38-0.08,212.07,0.14c31.25,0.1,55.66,12.05,70.54,41.18c9.72,19.03,21.2,37.16,31.57,55.87
		c7.37,13.3,17.05,20.08,33.47,19.71c45.37-1.02,90.79-0.4,136.19-0.34c50.22,0.06,92.94,42.58,93.09,93.07
		c0.21,72.96,0.22,145.92-0.09,218.88C1011.86,635.2,1012.08,681.25,1012.08,681.25z M881.58,542.74c-0.72,0.2-1.44,0.41-2.16,0.61
		c0,3.43,0,6.85,0,10.28c0,38.51-0.01,77.02,0,115.53c0,15.21,0.02,30.42,0.02,45.63c0,4.82,0.43,9.17,6.83,9.58
		c8.06,0.52,16.13,1.07,24.15,2.05c9.13,1.11,11.77-2.86,11.65-11.61c-0.4-28.47-1.25-57.01,0.22-85.41
		c1.09-21.16-3.12-38.9-18-54.69C895.41,565.28,889.07,553.47,881.58,542.74z M824.69,556.77c-15.55,19.16-29.66,36.38-43.5,53.83
		c-1.64,2.07-2.42,5.38-2.44,8.12c-0.17,31.74-0.04,63.49-0.18,95.23c-0.03,6.35,2.8,8.64,8.86,8.49c8.42-0.21,16.88-0.55,25.25,0.1
		c9.46,0.73,12.25-3.03,12.16-12.26c-0.4-39.51-0.16-79.03-0.15-118.55C824.69,580.77,824.69,569.81,824.69,556.77z M908.59,835.42
		c4.53,0,9.06,0.18,13.58-0.03c24.94-1.17,43.8-22.18,42.76-47.21c-0.22-5.34-1.73-8.5-7.6-8.96c-23.5-1.85-46.99-3.82-70.47-5.93
		c-5.67-0.51-7.68,1.86-7.3,7.2c0.71,9.98,1.01,20.01,2.04,29.96C884.79,841.13,883.65,834.77,908.59,835.42z M756.45,636.49
		c-15.03,13.03-28.4,24.22-41.19,36.03c-2.71,2.5-4.47,7.21-4.7,11.02c-0.62,10.64-0.02,21.35-0.27,32.03
		c-0.16,6.9,3.15,9.23,9.55,8.76c9.99-0.73,20.05-0.9,29.95-2.21c2.45-0.33,6.32-4.1,6.36-6.35
		C756.61,689.99,756.45,664.2,756.45,636.49z M944,624.27c0,34.59,0.15,65.98-0.08,97.37c-0.08,10.73,7.68,7.97,13.59,8.89
		c7.64,1.2,7.49-3.76,7.48-8.95c-0.05-21.05-1.13-42.17,0.34-63.12C966.5,641.76,955.43,634.96,944,624.27z M686.98,693.87
		c-20.69,12.46-40.88,24.62-62.85,37.85c13.84-1.32,25.38-2.7,36.96-3.47c28.88-1.93,30.06-3.24,26.87-32.56
		C687.93,695.39,687.66,695.12,686.98,693.87z"/>
	<path class="st0" d="M396.67,593.64c-0.23-74.41,58.67-137.21,132.5-143.95c71.3-6.5,138.52,45.51,150.14,111.83
		c3.02,17.24,1.55,35.32,1.4,53.01c-0.03,3.24-2.97,7.24-5.71,9.54c-56.58,47.57-121.11,79.26-193.22,95.24
		c-4.95,1.1-11.65-0.77-16.18-3.51C422.56,689.85,396.82,643.77,396.67,593.64z"/>
</g>
</svg>
